<svg xmlns="http://www.w3.org/2000/svg" xmlns:xlink="http://www.w3.org/1999/xlink" width="200" zoomAndPan="magnify" viewBox="0 0 150 149.999998" height="200" preserveAspectRatio="xMidYMid meet" version="1.0"><defs><clipPath id="2f8c082b17"><path d="M 44.757812 53 L 114.507812 53 L 114.507812 89 L 44.757812 89 Z M 44.757812 53 " clip-rule="nonzero"/></clipPath><clipPath id="ced01dc766"><path d="M 44.757812 18.078125 L 114.507812 18.078125 L 114.507812 54 L 44.757812 54 Z M 44.757812 18.078125 " clip-rule="nonzero"/></clipPath><clipPath id="91bbd71eec"><path d="M 44.757812 88 L 80 88 L 80 123.078125 L 44.757812 123.078125 Z M 44.757812 88 " clip-rule="nonzero"/></clipPath></defs><g clip-path="url(#2f8c082b17)"><path fill="#24a8ff" d="M 114.507812 88.0625 L 44.757812 88.0625 L 44.757812 53.089844 L 79.632812 53.089844 Z M 114.507812 88.0625 " fill-opacity="1" fill-rule="nonzero"/></g><g clip-path="url(#ced01dc766)"><path fill="#8ddcff" d="M 114.507812 18.113281 L 44.757812 18.113281 L 79.632812 53.089844 L 114.507812 53.089844 Z M 114.507812 18.113281 " fill-opacity="1" fill-rule="nonzero"/></g><g clip-path="url(#91bbd71eec)"><path fill="#054eff" d="M 79.632812 88.0625 L 79.632812 123.039062 L 44.757812 88.0625 Z M 79.632812 88.0625 " fill-opacity="1" fill-rule="nonzero"/></g></svg>