<svg xmlns="http://www.w3.org/2000/svg" xmlns:xlink="http://www.w3.org/1999/xlink" width="200" zoomAndPan="magnify" viewBox="0 0 150 149.999998" height="200" preserveAspectRatio="xMidYMid meet" version="1.0"><defs><clipPath id="9486df1b85"><path d="M 91 55 L 138.699219 55 L 138.699219 94 L 91 94 Z M 91 55 " clip-rule="nonzero"/></clipPath><clipPath id="62157ef8f3"><path d="M 25.449219 49.226562 L 77 49.226562 L 77 100.976562 L 25.449219 100.976562 Z M 25.449219 49.226562 " clip-rule="nonzero"/></clipPath></defs><g clip-path="url(#9486df1b85)"><path fill="#362701" d="M 101.386719 69.171875 C 99.34375 69.171875 97.820312 70.175781 97.820312 72.59375 C 97.820312 74.398438 98.824219 75.679688 101.273438 75.679688 C 103.351562 75.679688 104.761719 74.453125 104.761719 72.519531 C 104.761719 70.324219 103.5 69.171875 101.386719 69.171875 Z M 97.300781 86.238281 C 96.816406 86.832031 96.335938 87.464844 96.335938 88.191406 C 96.335938 89.675781 98.226562 90.125 100.828125 90.125 C 102.980469 90.125 105.914062 89.976562 105.914062 87.96875 C 105.914062 86.777344 104.503906 86.703125 102.71875 86.59375 L 97.316406 86.222656 Z M 108.289062 69.28125 C 108.957031 70.140625 109.664062 71.328125 109.664062 73.039062 C 109.664062 77.164062 106.421875 79.582031 101.757812 79.582031 C 100.554688 79.582031 99.503906 79.429688 98.824219 79.246094 L 97.597656 81.199219 L 101.238281 81.421875 C 107.664062 81.832031 111.445312 82.019531 111.445312 86.960938 C 111.445312 91.238281 107.699219 93.648438 101.238281 93.648438 C 94.519531 93.648438 91.957031 91.941406 91.957031 88.988281 C 91.957031 87.320312 92.703125 86.425781 94 85.195312 C 92.773438 84.679688 92.367188 83.75 92.367188 82.746094 C 92.367188 81.929688 92.773438 81.183594 93.441406 80.492188 L 95.746094 78.261719 C 93.925781 77.371094 92.550781 75.433594 92.550781 72.699219 C 92.550781 68.421875 95.371094 65.488281 101.050781 65.488281 C 102.648438 65.488281 103.613281 65.636719 104.46875 65.859375 L 111.707031 65.859375 L 111.707031 69.019531 L 108.292969 69.277344 M 118.238281 62.527344 C 116.136719 62.527344 114.898438 61.300781 114.898438 59.179688 C 114.898438 57.058594 116.121094 55.90625 118.238281 55.90625 C 120.390625 55.90625 121.617188 57.0625 121.617188 59.179688 C 121.617188 61.296875 120.390625 62.527344 118.238281 62.527344 Z M 113.433594 84.867188 L 113.433594 81.933594 L 115.328125 81.675781 C 115.847656 81.601562 115.921875 81.488281 115.921875 80.929688 L 115.921875 70 C 115.921875 69.59375 115.8125 69.332031 115.441406 69.21875 L 113.433594 68.515625 L 113.84375 65.503906 L 121.527344 65.503906 L 121.527344 80.933594 C 121.527344 81.53125 121.566406 81.605469 122.125 81.679688 L 124.015625 81.941406 L 124.015625 84.871094 L 113.429688 84.871094 M 138.710938 83.429688 C 137.113281 84.210938 134.773438 84.933594 132.65625 84.933594 C 128.238281 84.933594 126.570312 83.148438 126.570312 78.945312 L 126.570312 69.207031 C 126.570312 68.984375 126.570312 68.832031 126.269531 68.832031 L 123.6875 68.832031 L 123.6875 65.527344 C 126.953125 65.164062 128.253906 63.515625 128.664062 59.464844 L 132.191406 59.464844 L 132.191406 64.742188 C 132.191406 65.003906 132.191406 65.117188 132.488281 65.117188 L 137.722656 65.117188 L 137.722656 68.832031 L 132.175781 68.832031 L 132.175781 77.703125 C 132.175781 79.898438 132.695312 80.75 134.695312 80.75 C 135.738281 80.75 136.796875 80.492188 137.703125 80.15625 L 138.707031 83.429688 " fill-opacity="1" fill-rule="nonzero"/></g><g clip-path="url(#62157ef8f3)"><path fill="#f03c2e" d="M 75.734375 72.757812 L 53.476562 50.472656 C 52.195312 49.1875 50.117188 49.1875 48.835938 50.472656 L 44.214844 55.097656 L 50.074219 60.96875 C 51.4375 60.507812 53 60.816406 54.082031 61.902344 C 54.609375 62.429688 54.957031 63.0625 55.125 63.789062 C 55.292969 64.519531 55.253906 65.238281 55.007812 65.941406 L 60.660156 71.601562 C 62.007812 71.128906 63.601562 71.433594 64.695312 72.527344 C 65.1875 73.019531 65.523438 73.605469 65.707031 74.28125 C 65.886719 74.953125 65.886719 75.628906 65.707031 76.304688 C 65.527344 76.980469 65.1875 77.566406 64.695312 78.058594 C 64.199219 78.554688 63.617188 78.890625 62.941406 79.070312 C 62.265625 79.25 61.59375 79.25 60.917969 79.070312 C 60.246094 78.890625 59.664062 78.550781 59.167969 78.058594 C 58.023438 76.90625 57.738281 75.21875 58.320312 73.804688 L 53.066406 68.542969 L 53.066406 82.425781 C 53.425781 82.613281 53.789062 82.855469 54.097656 83.164062 C 55.625 84.691406 55.625 87.167969 54.097656 88.699219 C 53.734375 89.066406 53.308594 89.347656 52.832031 89.546875 C 52.351562 89.746094 51.855469 89.84375 51.335938 89.84375 C 50.820312 89.84375 50.320312 89.746094 49.84375 89.546875 C 49.363281 89.347656 48.941406 89.066406 48.574219 88.699219 C 47.050781 87.167969 47.050781 84.691406 48.574219 83.164062 C 48.945312 82.796875 49.371094 82.511719 49.855469 82.3125 L 49.855469 68.300781 C 49.402344 68.109375 48.953125 67.828125 48.574219 67.460938 C 48.300781 67.183594 48.074219 66.878906 47.890625 66.535156 C 47.707031 66.191406 47.578125 65.832031 47.503906 65.449219 C 47.429688 65.070312 47.414062 64.6875 47.453125 64.300781 C 47.492188 63.914062 47.585938 63.542969 47.734375 63.183594 L 41.957031 57.394531 L 26.6875 72.652344 C 26.378906 72.960938 26.140625 73.316406 25.976562 73.71875 C 25.808594 74.121094 25.726562 74.539062 25.726562 74.976562 C 25.726562 75.410156 25.808594 75.832031 25.976562 76.234375 C 26.140625 76.636719 26.378906 76.992188 26.6875 77.300781 L 48.941406 99.585938 C 50.222656 100.867188 52.300781 100.867188 53.585938 99.585938 L 75.734375 77.40625 C 76.039062 77.097656 76.277344 76.742188 76.441406 76.339844 C 76.609375 75.933594 76.691406 75.515625 76.691406 75.082031 C 76.691406 74.644531 76.609375 74.226562 76.441406 73.824219 C 76.277344 73.421875 76.039062 73.066406 75.734375 72.757812 " fill-opacity="1" fill-rule="nonzero"/></g></svg>