<svg xmlns="http://www.w3.org/2000/svg" xmlns:xlink="http://www.w3.org/1999/xlink" width="200" zoomAndPan="magnify" viewBox="0 0 150 149.999998" height="200" preserveAspectRatio="xMidYMid meet" version="1.0"><defs><clipPath id="094d53b82a"><path d="M 27.371094 49 L 95 49 L 95 88.660156 L 27.371094 88.660156 Z M 27.371094 49 " clip-rule="nonzero"/></clipPath><clipPath id="00e0c7b276"><path d="M 91 49 L 132 49 L 132 88.660156 L 91 88.660156 Z M 91 49 " clip-rule="nonzero"/></clipPath></defs><g clip-path="url(#094d53b82a)"><path fill="#00acd7" d="M 35.382812 61.183594 C 35.179688 61.183594 35.128906 61.078125 35.230469 60.929688 L 36.292969 59.558594 C 36.394531 59.40625 36.648438 59.304688 36.851562 59.304688 L 54.933594 59.304688 C 55.136719 59.304688 55.1875 59.457031 55.085938 59.609375 L 54.222656 60.929688 C 54.121094 61.082031 53.867188 61.234375 53.714844 61.234375 L 35.378906 61.183594 Z M 27.734375 65.847656 C 27.53125 65.847656 27.480469 65.746094 27.582031 65.59375 L 28.644531 64.226562 C 28.746094 64.074219 29 63.972656 29.203125 63.972656 L 52.300781 63.972656 C 52.503906 63.972656 52.601562 64.125 52.550781 64.277344 L 52.148438 65.492188 C 52.097656 65.695312 51.894531 65.796875 51.691406 65.796875 Z M 39.992188 70.511719 C 39.789062 70.511719 39.738281 70.359375 39.839844 70.207031 L 40.546875 68.941406 C 40.648438 68.789062 40.851562 68.636719 41.054688 68.636719 L 51.183594 68.636719 C 51.386719 68.636719 51.488281 68.789062 51.488281 68.992188 L 51.386719 70.207031 C 51.386719 70.410156 51.183594 70.5625 51.03125 70.5625 Z M 92.566406 60.269531 L 84.058594 62.5 C 83.296875 62.703125 83.25 62.753906 82.589844 61.992188 C 81.828125 61.128906 81.273438 60.570312 80.210938 60.066406 C 77.019531 58.492188 73.929688 58.949219 71.042969 60.828125 C 67.597656 63.058594 65.824219 66.355469 65.875 70.460938 C 65.925781 74.519531 68.710938 77.867188 72.710938 78.425781 C 76.15625 78.882812 79.042969 77.664062 81.324219 75.078125 C 81.78125 74.519531 82.183594 73.910156 82.691406 73.203125 L 72.914062 73.203125 C 71.851562 73.203125 71.597656 72.542969 71.953125 71.679688 C 72.609375 70.109375 73.824219 67.46875 74.535156 66.152344 C 74.6875 65.847656 75.042969 65.339844 75.800781 65.339844 L 94.238281 65.339844 C 94.136719 66.710938 94.136719 68.078125 93.933594 69.449219 C 93.378906 73.097656 92.011719 76.445312 89.78125 79.386719 C 86.132812 84.203125 81.375 87.199219 75.34375 88.007812 C 70.382812 88.667969 65.773438 87.703125 61.71875 84.664062 C 57.96875 81.820312 55.847656 78.070312 55.289062 73.402344 C 54.628906 67.875 56.25 62.90625 59.59375 58.546875 C 63.191406 53.828125 67.953125 50.835938 73.777344 49.773438 C 78.539062 48.910156 83.097656 49.46875 87.199219 52.257812 C 89.882812 54.03125 91.808594 56.464844 93.074219 59.40625 C 93.378906 59.863281 93.175781 60.117188 92.570312 60.269531 Z M 92.566406 60.269531 " fill-opacity="1" fill-rule="nonzero"/></g><g clip-path="url(#00e0c7b276)"><path fill="#00acd7" d="M 109.335938 88.3125 C 104.726562 88.210938 100.519531 86.886719 96.976562 83.847656 C 93.988281 81.261719 92.113281 77.964844 91.503906 74.0625 C 90.59375 68.332031 92.164062 63.257812 95.609375 58.746094 C 99.304688 53.878906 103.761719 51.34375 109.789062 50.277344 C 114.957031 49.363281 119.820312 49.871094 124.226562 52.863281 C 128.226562 55.601562 130.710938 59.304688 131.367188 64.171875 C 132.230469 71.019531 130.253906 76.597656 125.542969 81.363281 C 122.199219 84.761719 118.097656 86.890625 113.386719 87.855469 C 112.019531 88.109375 110.652344 88.160156 109.335938 88.3125 Z M 121.390625 67.824219 C 121.339844 67.164062 121.339844 66.660156 121.238281 66.152344 C 120.324219 61.132812 115.714844 58.292969 110.90625 59.40625 C 106.195312 60.472656 103.15625 63.464844 102.039062 68.230469 C 101.128906 72.1875 103.054688 76.191406 106.699219 77.816406 C 109.484375 79.03125 112.273438 78.878906 114.957031 77.511719 C 118.957031 75.4375 121.136719 72.1875 121.390625 67.824219 Z M 121.390625 67.824219 " fill-opacity="1" fill-rule="nonzero"/></g></svg>