<svg xmlns="http://www.w3.org/2000/svg" xmlns:xlink="http://www.w3.org/1999/xlink" width="200" zoomAndPan="magnify" viewBox="0 0 150 149.999998" height="200" preserveAspectRatio="xMidYMid meet" version="1.0"><defs><clipPath id="4a793c5387"><path d="M 43.148438 41 L 113.648438 41 L 113.648438 120.601562 L 43.148438 120.601562 Z M 43.148438 41 " clip-rule="nonzero"/></clipPath><clipPath id="ab0fd63411"><path d="M 49 21.601562 L 63 21.601562 L 63 35 L 49 35 Z M 49 21.601562 " clip-rule="nonzero"/></clipPath><clipPath id="70afd482ac"><path d="M 64 21.601562 L 78 21.601562 L 78 35 L 64 35 Z M 64 21.601562 " clip-rule="nonzero"/></clipPath><clipPath id="3ab473c9ab"><path d="M 79 21.601562 L 95 21.601562 L 95 35 L 79 35 Z M 79 21.601562 " clip-rule="nonzero"/></clipPath><clipPath id="ed5769bb21"><path d="M 96 21.601562 L 108 21.601562 L 108 35 L 96 35 Z M 96 21.601562 " clip-rule="nonzero"/></clipPath></defs><g clip-path="url(#4a793c5387)"><path fill="#e44d26" d="M 113.628906 41.058594 L 107.214844 112.636719 L 78.371094 120.597656 L 49.605469 112.648438 L 43.195312 41.058594 L 113.632812 41.058594 Z M 113.628906 41.058594 " fill-opacity="1" fill-rule="nonzero"/></g><path fill="#f16529" d="M 78.414062 114.511719 L 101.722656 108.078125 L 107.207031 46.910156 L 78.414062 46.910156 Z M 78.414062 114.511719 " fill-opacity="1" fill-rule="nonzero"/><path fill="#ebebeb" d="M 65.941406 64.472656 L 78.414062 64.472656 L 78.414062 55.691406 L 56.304688 55.691406 L 56.515625 58.046875 L 58.679688 82.242188 L 78.414062 82.242188 L 78.414062 73.464844 L 66.746094 73.464844 Z M 65.941406 64.472656 " fill-opacity="1" fill-rule="nonzero"/><path fill="#ebebeb" d="M 67.925781 86.632812 L 59.074219 86.632812 L 60.3125 100.421875 L 78.371094 105.414062 L 78.414062 105.402344 L 78.414062 96.265625 L 78.375 96.277344 L 68.554688 93.636719 Z M 67.925781 86.632812 " fill-opacity="1" fill-rule="nonzero"/><g clip-path="url(#ab0fd63411)"><path fill="#000000" d="M 49.75 21.601562 L 54.230469 21.601562 L 54.230469 26.011719 L 58.328125 26.011719 L 58.328125 21.601562 L 62.8125 21.601562 L 62.8125 34.953125 L 58.332031 34.953125 L 58.332031 30.480469 L 54.230469 30.480469 L 54.230469 34.953125 L 49.75 34.953125 Z M 49.75 21.601562 " fill-opacity="1" fill-rule="nonzero"/></g><g clip-path="url(#70afd482ac)"><path fill="#000000" d="M 68.703125 26.03125 L 64.757812 26.03125 L 64.757812 21.601562 L 77.132812 21.601562 L 77.132812 26.03125 L 73.183594 26.03125 L 73.183594 34.953125 L 68.703125 34.953125 Z M 68.703125 26.03125 " fill-opacity="1" fill-rule="nonzero"/></g><g clip-path="url(#3ab473c9ab)"><path fill="#000000" d="M 79.097656 21.601562 L 83.769531 21.601562 L 86.640625 26.292969 L 89.511719 21.601562 L 94.1875 21.601562 L 94.1875 34.953125 L 89.726562 34.953125 L 89.726562 28.335938 L 86.640625 33.082031 L 86.566406 33.082031 L 83.480469 28.335938 L 83.480469 34.953125 L 79.097656 34.953125 Z M 79.097656 21.601562 " fill-opacity="1" fill-rule="nonzero"/></g><g clip-path="url(#ed5769bb21)"><path fill="#000000" d="M 96.417969 21.601562 L 100.898438 21.601562 L 100.898438 30.539062 L 107.203125 30.539062 L 107.203125 34.953125 L 96.417969 34.953125 Z M 96.417969 21.601562 " fill-opacity="1" fill-rule="nonzero"/></g><path fill="#ffffff" d="M 78.382812 82.242188 L 89.242188 82.242188 L 88.21875 93.628906 L 78.382812 96.273438 L 78.382812 105.40625 L 96.460938 100.421875 L 96.59375 98.9375 L 98.667969 75.820312 L 98.882812 73.464844 L 78.382812 73.464844 Z M 78.382812 82.242188 " fill-opacity="1" fill-rule="nonzero"/><path fill="#ffffff" d="M 78.382812 64.449219 L 78.382812 64.472656 L 99.683594 64.472656 L 99.859375 62.496094 L 100.261719 58.046875 L 100.472656 55.691406 L 78.382812 55.691406 Z M 78.382812 64.449219 " fill-opacity="1" fill-rule="nonzero"/></svg>