<svg xmlns="http://www.w3.org/2000/svg" xmlns:xlink="http://www.w3.org/1999/xlink" width="200" zoomAndPan="magnify" viewBox="0 0 150 149.999998" height="200" preserveAspectRatio="xMidYMid meet" version="1.0"><defs><clipPath id="73cff32134"><path d="M 34.921875 27.269531 L 129.421875 27.269531 L 129.421875 122 L 34.921875 122 Z M 34.921875 27.269531 " clip-rule="nonzero"/></clipPath><clipPath id="77fb1eed28"><path d="M 34.921875 115.628906 L 34.921875 34.164062 C 34.921875 33.332031 35.082031 32.535156 35.402344 31.765625 C 35.722656 30.996094 36.179688 30.320312 36.769531 29.734375 C 37.359375 29.144531 38.039062 28.691406 38.8125 28.375 C 39.585938 28.054688 40.386719 27.898438 41.222656 27.898438 L 123.121094 27.898438 C 123.957031 27.898438 124.761719 28.054688 125.53125 28.375 C 126.304688 28.691406 126.984375 29.144531 127.578125 29.734375 C 128.167969 30.320312 128.621094 30.996094 128.941406 31.765625 C 129.261719 32.535156 129.421875 33.332031 129.421875 34.164062 L 129.421875 115.628906 C 129.421875 116.457031 129.261719 117.257812 128.941406 118.027344 C 128.621094 118.792969 128.167969 119.472656 127.578125 120.058594 C 126.984375 120.644531 126.304688 121.097656 125.53125 121.417969 C 124.761719 121.734375 123.957031 121.894531 123.121094 121.894531 L 41.222656 121.894531 C 40.386719 121.894531 39.585938 121.734375 38.8125 121.417969 C 38.039062 121.097656 37.359375 120.644531 36.769531 120.058594 C 36.179688 119.472656 35.722656 118.792969 35.402344 118.027344 C 35.082031 117.257812 34.921875 116.457031 34.921875 115.628906 Z M 34.921875 115.628906 " clip-rule="nonzero"/></clipPath><clipPath id="b20c3953c1"><path d="M 59 70 L 123 70 L 123 115 L 59 115 Z M 59 70 " clip-rule="nonzero"/></clipPath><clipPath id="9466c5b1f1"><path d="M 34.921875 115.628906 L 34.921875 34.164062 C 34.921875 33.332031 35.082031 32.535156 35.402344 31.765625 C 35.722656 30.996094 36.179688 30.320312 36.769531 29.734375 C 37.359375 29.144531 38.039062 28.691406 38.8125 28.375 C 39.585938 28.054688 40.386719 27.898438 41.222656 27.898438 L 123.121094 27.898438 C 123.957031 27.898438 124.761719 28.054688 125.53125 28.375 C 126.304688 28.691406 126.984375 29.144531 127.578125 29.734375 C 128.167969 30.320312 128.621094 30.996094 128.941406 31.765625 C 129.261719 32.535156 129.421875 33.332031 129.421875 34.164062 L 129.421875 115.628906 C 129.421875 116.457031 129.261719 117.257812 128.941406 118.027344 C 128.621094 118.792969 128.167969 119.472656 127.578125 120.058594 C 126.984375 120.644531 126.304688 121.097656 125.53125 121.417969 C 124.761719 121.734375 123.957031 121.894531 123.121094 121.894531 L 41.222656 121.894531 C 40.386719 121.894531 39.585938 121.734375 38.8125 121.417969 C 38.039062 121.097656 37.359375 120.644531 36.769531 120.058594 C 36.179688 119.472656 35.722656 118.792969 35.402344 118.027344 C 35.082031 117.257812 34.921875 116.457031 34.921875 115.628906 Z M 34.921875 115.628906 " clip-rule="nonzero"/></clipPath></defs><g clip-path="url(#73cff32134)"><g clip-path="url(#77fb1eed28)"><path fill="#f7df1e" d="M 34.921875 27.898438 L 129.421875 27.898438 L 129.421875 121.894531 L 34.921875 121.894531 Z M 34.921875 27.898438 " fill-opacity="1" fill-rule="nonzero"/></g></g><g clip-path="url(#b20c3953c1)"><g clip-path="url(#9466c5b1f1)"><path fill="#000000" d="M 59.769531 106.449219 L 67 102.09375 C 68.398438 104.554688 69.667969 106.636719 72.710938 106.636719 C 75.628906 106.636719 77.46875 105.5 77.46875 101.085938 L 77.46875 71.050781 L 86.347656 71.050781 L 86.347656 101.210938 C 86.347656 110.359375 80.957031 114.523438 73.089844 114.523438 C 65.988281 114.523438 61.863281 110.863281 59.769531 106.445312 M 91.171875 105.5 L 98.402344 101.335938 C 100.304688 104.429688 102.78125 106.699219 107.15625 106.699219 C 110.835938 106.699219 113.183594 104.871094 113.183594 102.347656 C 113.183594 99.316406 110.773438 98.246094 106.710938 96.480469 L 104.492188 95.53125 C 98.085938 92.820312 93.835938 89.410156 93.835938 82.21875 C 93.835938 75.59375 98.910156 70.546875 106.839844 70.546875 C 112.484375 70.546875 116.546875 72.503906 119.460938 77.613281 L 112.546875 82.03125 C 111.027344 79.316406 109.378906 78.246094 106.839844 78.246094 C 104.238281 78.246094 102.589844 79.882812 102.589844 82.03125 C 102.589844 84.679688 104.238281 85.753906 108.042969 87.394531 L 110.265625 88.339844 C 117.8125 91.558594 122.0625 94.839844 122.0625 102.21875 C 122.0625 110.171875 115.785156 114.523438 107.347656 114.523438 C 99.101562 114.523438 93.773438 110.613281 91.171875 105.5 " fill-opacity="1" fill-rule="nonzero"/></g></g></svg>