<svg xmlns="http://www.w3.org/2000/svg" xmlns:xlink="http://www.w3.org/1999/xlink" width="200" zoomAndPan="magnify" viewBox="0 0 150 149.999998" height="200" preserveAspectRatio="xMidYMid meet" version="1.0"><defs><clipPath id="76e968a22f"><path d="M 77 21 L 100.90625 21 L 100.90625 105 L 77 105 Z M 77 21 " clip-rule="nonzero"/></clipPath><clipPath id="b735b2c0b9"><path d="M 56 20.960938 L 79 20.960938 L 79 106 L 56 106 Z M 56 20.960938 " clip-rule="nonzero"/></clipPath><clipPath id="669624875a"><path d="M 76 93 L 82 93 L 82 117.710938 L 76 117.710938 Z M 76 93 " clip-rule="nonzero"/></clipPath></defs><g clip-path="url(#76e968a22f)"><path fill="#599636" d="M 77.878906 21.222656 L 80.484375 26.074219 C 81.070312 26.96875 81.703125 27.761719 82.449219 28.5 C 84.628906 30.660156 86.699219 32.925781 88.558594 35.351562 C 92.96875 41.09375 95.945312 47.472656 98.070312 54.375 C 99.34375 58.589844 100.035156 62.910156 100.089844 67.285156 C 100.300781 80.355469 95.785156 91.578125 86.675781 100.902344 C 85.1875 102.378906 83.597656 103.746094 81.890625 104.960938 C 80.988281 104.960938 80.558594 104.273438 80.1875 103.644531 C 79.496094 102.484375 79.074219 101.164062 78.859375 99.847656 C 78.539062 98.269531 78.328125 96.6875 78.433594 95.054688 L 78.433594 94.316406 C 78.359375 94.160156 77.5625 21.597656 77.878906 21.222656 Z M 77.878906 21.222656 " fill-opacity="1" fill-rule="nonzero"/></g><g clip-path="url(#b735b2c0b9)"><path fill="#6cac48" d="M 77.878906 21.0625 C 77.773438 20.851562 77.667969 21.011719 77.558594 21.117188 C 77.613281 22.175781 77.242188 23.117188 76.65625 24.019531 C 76.019531 24.914062 75.171875 25.597656 74.320312 26.335938 C 69.59375 30.394531 65.875 35.296875 62.898438 40.777344 C 58.933594 48.15625 56.890625 56.0625 56.3125 64.382812 C 56.046875 67.386719 57.269531 77.980469 58.222656 81.039062 C 60.828125 89.152344 65.503906 95.953125 71.5625 101.855469 C 73.050781 103.273438 74.640625 104.59375 76.285156 105.859375 C 76.765625 105.859375 76.816406 105.4375 76.925781 105.121094 C 77.136719 104.449219 77.296875 103.761719 77.40625 103.066406 L 78.472656 95.164062 Z M 77.878906 21.0625 " fill-opacity="1" fill-rule="nonzero"/></g><g clip-path="url(#669624875a)"><path fill="#c2bfbf" d="M 80.484375 108.171875 C 80.589844 106.964844 81.175781 105.960938 81.8125 104.957031 C 81.171875 104.695312 80.699219 104.171875 80.324219 103.589844 C 80.003906 103.0625 79.738281 102.429688 79.53125 101.851562 C 78.789062 99.636719 78.628906 97.316406 78.417969 95.054688 L 78.417969 93.683594 C 78.152344 93.894531 78.097656 95.6875 78.097656 95.953125 C 77.941406 98.34375 77.621094 100.714844 77.140625 103.066406 C 76.980469 104.015625 76.875 104.960938 76.285156 105.804688 C 76.285156 105.910156 76.285156 106.015625 76.339844 106.175781 C 77.296875 108.96875 77.558594 111.8125 77.71875 114.710938 L 77.71875 115.769531 C 77.71875 117.035156 77.667969 116.769531 78.726562 117.191406 C 79.152344 117.347656 79.628906 117.402344 80.054688 117.71875 C 80.375 117.71875 80.425781 117.453125 80.425781 117.242188 L 80.265625 115.503906 L 80.265625 110.65625 C 80.214844 109.808594 80.375 108.96875 80.480469 108.175781 Z M 80.484375 108.171875 " fill-opacity="1" fill-rule="nonzero"/></g></svg>