<svg xmlns="http://www.w3.org/2000/svg" xmlns:xlink="http://www.w3.org/1999/xlink" width="200" zoomAndPan="magnify" viewBox="0 0 150 149.999998" height="200" preserveAspectRatio="xMidYMid meet" version="1.0"><defs><clipPath id="74a89ab702"><path d="M 36 20.640625 L 122 20.640625 L 122 118.140625 L 36 118.140625 Z M 36 20.640625 " clip-rule="nonzero"/></clipPath></defs><g clip-path="url(#74a89ab702)"><path fill="#539e43" d="M 79.007812 118.128906 C 77.671875 118.128906 76.421875 117.769531 75.269531 117.148438 L 63.429688 110.09375 C 61.648438 109.113281 62.539062 108.753906 63.074219 108.578125 C 65.476562 107.769531 65.921875 107.59375 68.414062 106.164062 C 68.679688 105.984375 69.039062 106.078125 69.304688 106.253906 L 78.382812 111.699219 C 78.738281 111.878906 79.183594 111.878906 79.453125 111.699219 L 114.96875 91.078125 C 115.324219 90.898438 115.5 90.542969 115.5 90.09375 L 115.5 48.933594 C 115.5 48.488281 115.324219 48.132812 114.96875 47.953125 L 79.453125 27.417969 C 79.097656 27.238281 78.652344 27.238281 78.382812 27.417969 L 42.867188 47.953125 C 42.511719 48.132812 42.332031 48.578125 42.332031 48.933594 L 42.332031 90.09375 C 42.332031 90.453125 42.511719 90.898438 42.867188 91.078125 L 52.570312 96.699219 C 57.820312 99.378906 61.113281 96.257812 61.113281 93.128906 L 61.113281 52.503906 C 61.113281 51.96875 61.558594 51.433594 62.183594 51.433594 L 66.722656 51.433594 C 67.257812 51.433594 67.789062 51.882812 67.789062 52.507812 L 67.789062 93.128906 C 67.789062 100.183594 63.964844 104.292969 57.285156 104.292969 C 55.238281 104.292969 53.636719 104.292969 49.097656 102.058594 L 39.75 96.699219 C 37.4375 95.363281 36.011719 92.863281 36.011719 90.183594 L 36.011719 49.027344 C 36.011719 46.347656 37.4375 43.847656 39.75 42.507812 L 75.269531 21.882812 C 77.492188 20.632812 80.523438 20.632812 82.746094 21.882812 L 118.261719 42.507812 C 120.578125 43.847656 122 46.34375 122 49.023438 L 122 90.183594 C 122 92.863281 120.578125 95.363281 118.261719 96.699219 L 82.746094 117.324219 C 81.589844 117.859375 80.253906 118.125 79.007812 118.125 Z M 89.957031 89.828125 C 74.378906 89.828125 71.171875 82.683594 71.171875 76.609375 C 71.171875 76.074219 71.617188 75.539062 72.242188 75.539062 L 76.871094 75.539062 C 77.40625 75.539062 77.847656 75.898438 77.847656 76.433594 C 78.558594 81.164062 80.609375 83.488281 90.042969 83.488281 C 97.519531 83.488281 100.726562 81.789062 100.726562 77.773438 C 100.726562 75.453125 99.835938 73.753906 88.175781 72.59375 C 78.472656 71.609375 72.421875 69.46875 72.421875 61.703125 C 72.421875 54.46875 78.472656 50.183594 88.621094 50.183594 C 100.011719 50.183594 105.625 54.113281 106.335938 62.683594 C 106.335938 62.953125 106.246094 63.21875 106.066406 63.488281 C 105.886719 63.667969 105.625 63.84375 105.355469 63.84375 L 100.726562 63.84375 C 100.28125 63.84375 99.835938 63.488281 99.75 63.039062 C 98.679688 58.132812 95.917969 56.523438 88.621094 56.523438 C 80.429688 56.523438 79.453125 59.382812 79.453125 61.523438 C 79.453125 64.113281 80.609375 64.917969 91.648438 66.34375 C 102.597656 67.773438 107.757812 69.824219 107.757812 77.503906 C 107.667969 85.359375 101.261719 89.828125 89.957031 89.828125 Z M 89.957031 89.828125 " fill-opacity="1" fill-rule="nonzero"/></g></svg>