<svg xmlns="http://www.w3.org/2000/svg" xmlns:xlink="http://www.w3.org/1999/xlink" width="200" zoomAndPan="magnify" viewBox="0 0 150 149.999998" height="200" preserveAspectRatio="xMidYMid meet" version="1.0"><defs><clipPath id="09b7a47d89"><path d="M 33.097656 28.710938 L 121.597656 28.710938 L 121.597656 120.960938 L 33.097656 120.960938 Z M 33.097656 28.710938 " clip-rule="nonzero"/></clipPath></defs><path fill="#000000" d="M 115.511719 85.574219 C 115.511719 85.578125 115.507812 85.582031 115.503906 85.582031 C 115.496094 85.582031 115.496094 85.578125 115.496094 85.574219 C 115.496094 85.566406 115.496094 85.566406 115.503906 85.566406 C 115.507812 85.566406 115.511719 85.566406 115.511719 85.574219 Z M 115.511719 85.574219 " fill-opacity="1" fill-rule="nonzero"/><path fill="#32648d" d="M 104.203125 84.847656 L 104.210938 84.855469 L 104.210938 84.859375 L 104.199219 84.863281 C 103.648438 85.066406 103.1875 85.148438 102.804688 85.320312 C 102.410156 85.476562 102.09375 85.761719 101.90625 86.128906 L 101.902344 86.136719 C 101.667969 86.574219 101.460938 87.351562 101.523438 88.675781 C 101.679688 88.789062 101.871094 88.878906 102.0625 88.9375 L 102.078125 88.941406 C 102.722656 89.140625 103.804688 89.269531 105.007812 89.25 C 107.410156 89.222656 110.371094 88.65625 111.941406 87.917969 C 113.296875 87.273438 114.457031 86.496094 115.492188 85.574219 C 110.242188 86.671875 107.277344 86.375 105.457031 85.617188 C 104.984375 85.414062 104.570312 85.15625 104.203125 84.847656 Z M 104.203125 84.847656 " fill-opacity="1" fill-rule="nonzero"/><path fill="#32648d" d="M 98.820312 44.53125 L 98.84375 44.566406 L 98.871094 44.597656 Z M 98.820312 44.53125 " fill-opacity="1" fill-rule="nonzero"/><path fill="#32648d" d="M 78.746094 102.277344 C 78.742188 102.179688 78.746094 102.082031 78.742188 101.988281 C 78.742188 101.949219 78.738281 101.921875 78.738281 101.882812 Z M 78.746094 102.277344 " fill-opacity="1" fill-rule="nonzero"/><path fill="#32648d" d="M 74.722656 85.453125 C 74.5 85.34375 74.242188 85.265625 73.964844 85.226562 L 73.953125 85.226562 L 73.953125 85.21875 L 73.871094 85.21875 C 73.671875 85.238281 73.382812 85.304688 72.820312 85.933594 C 71.507812 87.421875 71.050781 88.355469 69.964844 89.226562 C 68.882812 90.097656 67.480469 90.5625 64.671875 91.144531 C 63.78125 91.328125 63.269531 91.53125 62.9375 91.695312 C 63.046875 91.785156 63.035156 91.808594 63.199219 91.898438 C 63.609375 92.125 64.136719 92.328125 64.5625 92.4375 C 65.769531 92.742188 67.753906 93.097656 69.820312 92.742188 C 71.886719 92.382812 74.039062 91.382812 75.875 88.777344 C 76.191406 88.328125 76.226562 87.664062 75.964844 86.953125 C 75.707031 86.238281 75.125 85.625 74.722656 85.453125 Z M 74.722656 85.453125 " fill-opacity="1" fill-rule="nonzero"/><path fill="#32648d" d="M 90.125 34.433594 L 89.90625 34.476562 C 89.980469 34.460938 90.058594 34.453125 90.132812 34.4375 C 90.128906 34.4375 90.128906 34.433594 90.125 34.433594 Z M 90.125 34.433594 " fill-opacity="1" fill-rule="nonzero"/><path fill="#32648d" d="M 100.738281 55.011719 C 98.175781 55.046875 96.742188 55.714844 95.988281 56.585938 C 94.917969 57.824219 94.820312 59.996094 95.484375 62.675781 C 96.144531 65.355469 97.503906 68.351562 98.789062 70.839844 C 99.429688 72.085938 100.050781 73.207031 100.550781 74.117188 C 101.054688 75.03125 101.421875 75.679688 101.648438 76.234375 C 101.855469 76.742188 102.085938 77.195312 102.320312 77.613281 C 103.3125 75.496094 103.488281 73.421875 103.386719 71.253906 C 103.257812 68.574219 102.640625 65.835938 102.730469 63.058594 C 102.835938 59.816406 103.46875 57.703125 103.519531 55.195312 C 102.6875 55.082031 101.71875 55.011719 100.738281 55.011719 Z M 101.210938 56.941406 L 101.207031 56.972656 C 101.207031 56.984375 101.207031 56.996094 101.207031 57.007812 C 101.207031 57.183594 101.15625 57.351562 101.070312 57.488281 L 101.070312 57.484375 C 100.953125 57.703125 100.816406 57.894531 100.65625 58.058594 C 100.28125 58.472656 99.78125 58.761719 99.21875 58.863281 L 99.203125 58.867188 C 99.125 58.878906 99.03125 58.882812 98.9375 58.882812 C 98.457031 58.882812 98.011719 58.730469 97.652344 58.46875 L 97.660156 58.472656 C 97.472656 58.34375 97.308594 58.195312 97.175781 58.027344 L 97.171875 58.023438 C 97.050781 57.894531 96.96875 57.726562 96.933594 57.546875 L 96.933594 57.539062 C 96.933594 57.519531 96.929688 57.5 96.929688 57.480469 C 96.929688 57.316406 96.992188 57.164062 97.09375 57.050781 C 97.214844 56.910156 97.359375 56.796875 97.527344 56.710938 L 97.535156 56.707031 C 97.898438 56.503906 98.386719 56.351562 98.941406 56.265625 C 99.144531 56.234375 99.351562 56.21875 99.542969 56.214844 L 99.542969 56.226562 L 99.730469 56.226562 C 99.976562 56.234375 100.207031 56.261719 100.410156 56.3125 C 100.609375 56.359375 100.785156 56.425781 100.925781 56.523438 C 101.070312 56.617188 101.175781 56.761719 101.210938 56.941406 Z M 101.210938 56.941406 " fill-opacity="1" fill-rule="nonzero"/><path fill="#32648d" d="M 58.757812 71.8125 C 58.757812 71.125 58.8125 70.453125 58.910156 69.792969 L 58.902344 69.867188 C 59.292969 67.050781 59.347656 64.417969 59.300781 62.335938 C 59.253906 60.308594 59.109375 58.957031 59.109375 58.113281 C 59.109375 58.101562 59.109375 58.09375 59.109375 58.082031 C 59.109375 58.070312 59.109375 58.054688 59.109375 58.042969 L 59.109375 58.023438 L 59.105469 58 L 59.105469 57.996094 C 59.105469 57.988281 59.105469 57.984375 59.105469 57.976562 C 59.105469 53.464844 59.898438 49.136719 61.335938 45.125 C 62.394531 42.289062 63.964844 39.410156 66.320312 37.078125 C 64.003906 36.304688 59.898438 35.132812 55.453125 34.910156 C 55.023438 34.886719 54.523438 34.875 54.023438 34.875 L 54.019531 34.875 L 54.019531 34.878906 C 53.542969 34.878906 53.0625 34.890625 52.589844 34.917969 C 48.785156 35.140625 45.183594 36.257812 42.613281 39.015625 C 40.035156 41.777344 38.335938 46.300781 38.707031 53.792969 C 38.777344 55.210938 39.390625 59.183594 40.433594 63.902344 C 41.484375 68.621094 42.960938 74.175781 44.738281 79.082031 C 46.519531 83.988281 48.675781 88.257812 50.730469 90.277344 C 51.761719 91.285156 52.660156 91.695312 53.472656 91.660156 C 54.289062 91.621094 55.273438 91.144531 56.472656 89.6875 C 58.835938 86.8125 61.066406 84.269531 63.371094 81.796875 L 63.292969 81.878906 C 60.507812 79.421875 58.757812 75.824219 58.757812 71.8125 Z M 58.757812 71.8125 " fill-opacity="1" fill-rule="nonzero"/><path fill="#32648d" d="M 79.046875 34.6875 L 79.046875 34.679688 C 74.59375 34.691406 71.398438 36.050781 68.972656 38.089844 C 66.476562 40.199219 64.800781 43.085938 63.699219 46.039062 C 62.390625 49.546875 61.945312 52.9375 61.765625 55.242188 L 61.8125 55.210938 C 63.160156 54.449219 64.925781 53.683594 66.820312 53.242188 C 68.710938 52.800781 70.746094 52.667969 72.59375 53.390625 C 74.441406 54.117188 75.964844 55.820312 76.519531 58.40625 C 79.167969 70.820312 75.695312 75.4375 74.414062 78.921875 C 74.003906 79.921875 73.582031 81.210938 73.226562 82.527344 L 73.164062 82.78125 C 73.324219 82.742188 73.488281 82.699219 73.648438 82.683594 C 74.554688 82.605469 75.265625 82.910156 75.683594 83.09375 C 76.972656 83.636719 77.859375 84.773438 78.335938 86.066406 C 78.460938 86.40625 78.546875 86.773438 78.601562 87.152344 C 78.652344 87.28125 78.675781 87.433594 78.675781 87.589844 C 78.675781 87.605469 78.675781 87.621094 78.675781 87.636719 C 78.617188 89.539062 78.578125 91.777344 78.578125 94.027344 C 78.578125 96.691406 78.632812 99.34375 78.730469 101.988281 C 78.820312 103.992188 78.945312 105.769531 79.101562 107.167969 C 79.265625 108.59375 79.492188 109.671875 79.640625 110.039062 C 80.121094 111.257812 80.824219 112.855469 82.097656 113.941406 C 83.375 115.023438 85.199219 115.75 88.539062 115.023438 C 91.433594 114.394531 93.21875 113.523438 94.414062 112.269531 C 95.605469 111.015625 96.316406 109.269531 96.769531 106.59375 C 97.453125 102.59375 98.820312 90.984375 98.988281 88.800781 C 98.914062 87.15625 99.152344 85.890625 99.675781 84.925781 C 100.210938 83.933594 101.042969 83.328125 101.753906 83 C 102.113281 82.835938 102.449219 82.726562 102.722656 82.644531 C 102.386719 82.160156 102.085938 81.757812 101.773438 81.363281 L 101.808594 81.40625 C 100.820312 80.203125 99.976562 78.816406 99.339844 77.328125 L 99.296875 77.214844 C 98.914062 76.421875 98.589844 75.816406 98.25 75.226562 L 98.328125 75.375 C 97.828125 74.460938 97.195312 73.316406 96.53125 72.03125 C 95.207031 69.460938 93.765625 66.339844 93.011719 63.304688 C 92.265625 60.269531 92.15625 57.128906 94.074219 54.914062 C 95.765625 52.945312 98.746094 52.128906 103.210938 52.585938 C 103.082031 52.1875 103.003906 51.855469 102.777344 51.320312 C 101.691406 48.769531 100.382812 46.566406 98.828125 44.566406 C 95.042969 39.679688 88.917969 34.84375 79.46875 34.6875 Z M 79.046875 34.6875 " fill-opacity="1" fill-rule="nonzero"/><path fill="#32648d" d="M 61.710938 58.328125 L 61.71875 58.324219 L 61.730469 58.3125 Z M 61.710938 58.328125 " fill-opacity="1" fill-rule="nonzero"/><path fill="#32648d" d="M 67.316406 55.746094 L 67.355469 55.742188 L 67.386719 55.730469 Z M 67.316406 55.746094 " fill-opacity="1" fill-rule="nonzero"/><path fill="#32648d" d="M 72.042969 78.023438 C 73.574219 73.855469 76.582031 70.8125 74.050781 58.941406 C 73.636719 56.996094 72.816406 56.210938 71.6875 55.769531 C 71.136719 55.570312 70.5 55.449219 69.832031 55.449219 C 69.789062 55.449219 69.746094 55.449219 69.703125 55.449219 L 69.710938 55.449219 C 68.898438 55.457031 68.113281 55.5625 67.355469 55.742188 C 65.753906 56.148438 64.34375 56.71875 63.03125 57.453125 C 62.539062 57.722656 62.117188 58.003906 61.71875 58.320312 L 61.644531 58.390625 C 61.667969 58.945312 61.777344 60.296875 61.820312 62.28125 C 61.867188 64.453125 61.8125 67.226562 61.398438 70.226562 C 60.5 76.742188 65.175781 82.140625 70.667969 82.148438 C 70.992188 80.8125 71.519531 79.453125 72.042969 78.023438 Z M 68.796875 59.082031 C 68.617188 58.898438 68.472656 58.695312 68.355469 58.46875 L 68.347656 58.453125 C 68.25 58.292969 68.191406 58.101562 68.191406 57.890625 C 68.191406 57.851562 68.195312 57.8125 68.199219 57.777344 L 68.199219 57.78125 C 68.257812 57.367188 68.59375 57.152344 68.917969 57.035156 C 69.21875 56.9375 69.554688 56.878906 69.914062 56.878906 C 69.964844 56.878906 70.019531 56.878906 70.078125 56.882812 L 70.074219 56.867188 C 70.273438 56.867188 70.488281 56.886719 70.703125 56.917969 C 71.277344 56.996094 71.792969 57.152344 72.183594 57.382812 C 72.375 57.488281 72.542969 57.625 72.675781 57.785156 L 72.679688 57.785156 C 72.8125 57.9375 72.886719 58.128906 72.886719 58.347656 C 72.886719 58.378906 72.886719 58.410156 72.882812 58.4375 L 72.882812 58.433594 C 72.84375 58.664062 72.742188 58.863281 72.601562 59.023438 C 72.445312 59.210938 72.269531 59.375 72.070312 59.515625 L 72.0625 59.519531 C 71.679688 59.800781 71.195312 59.96875 70.671875 59.96875 C 70.566406 59.96875 70.464844 59.960938 70.367188 59.949219 L 70.378906 59.949219 C 69.746094 59.839844 69.203125 59.527344 68.796875 59.082031 Z M 68.796875 59.082031 " fill-opacity="1" fill-rule="nonzero"/><path fill="#32648d" d="M 62.953125 57.488281 C 62.980469 57.472656 63.007812 57.46875 63.03125 57.453125 C 63.035156 57.453125 63.039062 57.449219 63.042969 57.445312 Z M 62.953125 57.488281 " fill-opacity="1" fill-rule="nonzero"/><path fill="#32648d" d="M 100.863281 43.011719 C 102.515625 45.128906 103.945312 47.535156 105.046875 50.121094 L 105.128906 50.332031 C 105.542969 51.335938 105.820312 52.1875 105.976562 52.847656 C 106.058594 53.179688 106.109375 53.457031 106.128906 53.746094 C 106.136719 53.890625 106.144531 54.039062 106.085938 54.296875 C 106.085938 54.308594 106.066406 54.332031 106.0625 54.34375 C 106.175781 57.683594 105.355469 59.949219 105.261719 63.136719 C 105.183594 65.445312 105.769531 68.160156 105.914062 71.121094 C 106.050781 73.902344 105.71875 76.960938 103.929688 79.960938 C 104.082031 80.144531 104.214844 80.328125 104.359375 80.511719 C 109.085938 72.980469 112.492188 64.652344 114.308594 57.550781 C 115.28125 53.726562 115.796875 50.261719 115.839844 47.519531 C 115.878906 44.773438 115.371094 42.78125 114.730469 41.953125 C 109.671875 35.410156 102.835938 33.746094 97.097656 33.699219 L 97.097656 33.703125 L 96.546875 33.703125 C 94.335938 33.738281 92.199219 33.992188 90.136719 34.4375 C 94.820312 36.542969 98.367188 39.78125 100.863281 43.011719 Z M 100.863281 43.011719 " fill-opacity="1" fill-rule="nonzero"/><g clip-path="url(#09b7a47d89)"><path fill="#000000" d="M 79.675781 29.691406 L 79.640625 29.691406 C 75.199219 29.617188 71.386719 30.707031 68.308594 32.519531 C 65.28125 31.457031 59 29.625 52.375 29.988281 C 47.761719 30.246094 42.726562 31.664062 38.996094 35.648438 C 35.277344 39.628906 33.3125 45.792969 33.726562 54.179688 C 33.839844 56.496094 34.492188 60.269531 35.570312 65.15625 C 36.652344 70.042969 38.171875 75.765625 40.066406 80.984375 C 41.964844 86.207031 44.039062 90.894531 47.285156 94.082031 C 48.90625 95.679688 51.136719 97.019531 53.765625 96.910156 C 55.613281 96.832031 57.277344 96.011719 58.71875 94.804688 C 59.421875 95.738281 60.171875 96.148438 60.851562 96.523438 C 61.710938 97 62.546875 97.324219 63.414062 97.539062 C 64.96875 97.929688 67.632812 98.457031 70.75 97.917969 C 71.816406 97.742188 72.933594 97.390625 74.046875 96.890625 C 74.089844 98.148438 74.136719 99.378906 74.183594 100.625 C 74.339844 104.574219 74.4375 108.222656 75.605469 111.421875 C 75.792969 111.945312 76.3125 114.636719 78.347656 117.011719 C 80.378906 119.390625 84.367188 120.871094 88.90625 119.886719 C 92.113281 119.195312 96.183594 117.945312 98.890625 114.046875 C 101.5625 110.199219 102.769531 104.675781 103.011719 95.714844 C 103.070312 95.230469 103.144531 94.820312 103.214844 94.433594 L 103.851562 94.492188 L 103.929688 94.492188 C 107.347656 94.648438 111.054688 94.15625 114.152344 92.699219 C 116.894531 91.417969 118.96875 90.117188 120.484375 87.808594 C 120.863281 87.238281 121.273438 86.546875 121.386719 85.359375 C 121.503906 84.167969 120.828125 82.308594 119.707031 81.453125 C 117.460938 79.730469 116.054688 80.382812 114.542969 80.699219 C 113.199219 81.015625 111.640625 81.214844 110.046875 81.257812 L 110.015625 81.257812 C 114.375 73.835938 117.496094 65.953125 119.277344 58.976562 C 120.335938 54.859375 120.925781 51.0625 120.972656 47.742188 C 121.023438 44.421875 120.753906 41.484375 118.785156 38.941406 C 112.640625 30.996094 104 28.800781 97.316406 28.722656 C 97.109375 28.71875 96.898438 28.71875 96.691406 28.71875 L 96.691406 28.710938 C 93.054688 28.738281 89.550781 29.289062 86.238281 30.269531 L 86.082031 30.320312 C 84.167969 29.964844 81.941406 29.734375 79.675781 29.691406 Z M 88.714844 32.121094 C 91.046875 31.546875 93.734375 31.199219 96.496094 31.164062 L 96.519531 31.164062 L 96.523438 31.148438 C 102.847656 31.089844 110.921875 32.882812 116.722656 40.382812 C 118.027344 42.066406 118.417969 44.527344 118.371094 47.5625 C 118.320312 50.59375 117.769531 54.222656 116.753906 58.199219 C 114.785156 65.898438 111.070312 74.875 105.835938 82.929688 C 106.007812 83.058594 106.207031 83.167969 106.414062 83.25 L 106.429688 83.257812 C 107.523438 83.714844 110.011719 84.109375 114.984375 83.074219 C 116.234375 82.808594 117.148438 82.628906 118.101562 83.363281 C 118.527344 83.726562 118.792969 84.269531 118.792969 84.875 C 118.792969 84.914062 118.792969 84.953125 118.789062 84.988281 L 118.789062 84.984375 C 118.734375 85.46875 118.5625 85.902344 118.296875 86.265625 C 117.335938 87.726562 115.441406 89.109375 113.015625 90.25 C 110.863281 91.265625 107.777344 91.792969 105.042969 91.824219 C 103.667969 91.839844 102.40625 91.734375 101.332031 91.394531 L 101.261719 91.367188 C 100.847656 95.40625 99.894531 103.386719 99.273438 107.027344 C 98.777344 109.960938 97.90625 112.292969 96.242188 114.039062 C 94.582031 115.785156 92.238281 116.839844 89.078125 117.523438 C 85.167969 118.375 82.316406 117.460938 80.476562 115.894531 C 78.644531 114.332031 77.804688 112.257812 77.296875 110.988281 C 76.949219 110.109375 76.769531 108.972656 76.59375 107.457031 C 76.417969 105.941406 76.292969 104.082031 76.207031 101.992188 C 76.121094 99.863281 76.078125 97.363281 76.078125 94.851562 C 76.078125 94.023438 76.082031 93.199219 76.089844 92.375 C 74.515625 93.835938 72.523438 94.867188 70.3125 95.257812 L 70.242188 95.269531 C 67.644531 95.714844 65.332031 95.277344 63.945312 94.925781 C 63.210938 94.742188 62.570312 94.476562 61.964844 94.148438 C 61.332031 93.804688 60.730469 93.414062 60.328125 92.648438 C 60.167969 92.355469 60.070312 92 60.070312 91.625 C 60.070312 91.476562 60.085938 91.328125 60.117188 91.191406 C 60.253906 90.679688 60.539062 90.246094 60.933594 89.941406 L 60.9375 89.9375 C 61.683594 89.324219 62.667969 88.980469 64.160156 88.667969 C 66.867188 88.105469 67.8125 87.71875 68.390625 87.257812 C 68.878906 86.859375 69.433594 86.058594 70.410156 84.886719 C 70.40625 84.851562 70.402344 84.796875 70.398438 84.742188 L 70.398438 84.730469 C 68.554688 84.675781 66.832031 84.175781 65.332031 83.335938 L 65.386719 83.367188 C 64.824219 83.96875 61.9375 87.054688 58.417969 91.339844 C 56.9375 93.132812 55.304688 94.160156 53.578125 94.234375 C 51.855469 94.304688 50.292969 93.429688 48.96875 92.128906 C 46.316406 89.527344 44.203125 85.046875 42.359375 79.984375 C 40.523438 74.921875 39.027344 69.285156 37.960938 64.480469 C 36.894531 59.679688 36.269531 55.804688 36.175781 53.9375 C 35.78125 46 37.617188 40.652344 40.761719 37.277344 C 43.914062 33.90625 48.230469 32.628906 52.4375 32.382812 C 59.996094 31.945312 67.164062 34.609375 68.617188 35.183594 C 71.417969 33.261719 75.023438 32.0625 79.519531 32.140625 C 81.785156 32.175781 83.964844 32.476562 86.046875 33.011719 L 85.855469 32.972656 L 85.933594 32.9375 C 86.660156 32.664062 87.59375 32.382812 88.546875 32.15625 Z M 88.714844 32.121094 " fill-opacity="1" fill-rule="nonzero"/></g></svg>