<svg xmlns="http://www.w3.org/2000/svg" xmlns:xlink="http://www.w3.org/1999/xlink" width="200" zoomAndPan="magnify" viewBox="0 0 150 149.999998" height="200" preserveAspectRatio="xMidYMid meet" version="1.0"><defs><clipPath id="6556ea4c05"><path d="M 39.550781 36 L 119.800781 36 L 119.800781 109 L 39.550781 109 Z M 39.550781 36 " clip-rule="nonzero"/></clipPath></defs><g clip-path="url(#6556ea4c05)"><path fill="#00d8ff" d="M 105.476562 59.96875 C 104.648438 59.683594 103.789062 59.410156 102.898438 59.15625 C 103.046875 58.5625 103.183594 57.972656 103.300781 57.398438 C 105.25 47.925781 103.976562 40.296875 99.617188 37.785156 C 95.4375 35.375 88.605469 37.886719 81.707031 43.890625 C 81.042969 44.46875 80.378906 45.082031 79.714844 45.722656 C 79.269531 45.296875 78.828125 44.886719 78.386719 44.496094 C 71.15625 38.078125 63.90625 35.371094 59.554688 37.890625 C 55.378906 40.304688 54.144531 47.476562 55.898438 56.453125 C 56.070312 57.320312 56.269531 58.207031 56.492188 59.105469 C 55.464844 59.398438 54.476562 59.707031 53.527344 60.039062 C 45.050781 62.992188 39.636719 67.625 39.636719 72.429688 C 39.636719 77.390625 45.449219 82.371094 54.277344 85.386719 C 54.976562 85.625 55.699219 85.851562 56.445312 86.0625 C 56.203125 87.035156 55.992188 87.992188 55.816406 88.921875 C 54.140625 97.742188 55.449219 104.746094 59.609375 107.144531 C 63.910156 109.625 71.125 107.074219 78.152344 100.9375 C 78.710938 100.449219 79.265625 99.933594 79.824219 99.398438 C 80.550781 100.089844 81.273438 100.75 81.988281 101.371094 C 88.796875 107.226562 95.515625 109.589844 99.675781 107.183594 C 103.96875 104.699219 105.367188 97.171875 103.554688 88.023438 C 103.417969 87.320312 103.253906 86.609375 103.074219 85.882812 C 103.582031 85.730469 104.078125 85.574219 104.5625 85.417969 C 113.746094 82.375 119.71875 77.460938 119.71875 72.429688 C 119.71875 67.609375 114.128906 62.945312 105.476562 59.96875 Z M 103.488281 82.167969 C 103.050781 82.3125 102.601562 82.453125 102.144531 82.589844 C 101.128906 79.382812 99.761719 75.972656 98.085938 72.445312 C 99.683594 69.003906 101 65.636719 101.984375 62.453125 C 102.804688 62.6875 103.597656 62.9375 104.363281 63.203125 C 111.773438 65.753906 116.296875 69.523438 116.296875 72.429688 C 116.296875 75.523438 111.414062 79.542969 103.488281 82.167969 Z M 100.199219 88.683594 C 101 92.730469 101.113281 96.390625 100.582031 99.253906 C 100.105469 101.824219 99.144531 103.539062 97.960938 104.222656 C 95.4375 105.683594 90.039062 103.785156 84.222656 98.777344 C 83.550781 98.203125 82.878906 97.589844 82.207031 96.941406 C 84.460938 94.472656 86.71875 91.605469 88.921875 88.417969 C 92.789062 88.078125 96.445312 87.515625 99.765625 86.75 C 99.929688 87.410156 100.070312 88.054688 100.199219 88.683594 Z M 66.9375 103.96875 C 64.472656 104.84375 62.507812 104.867188 61.320312 104.183594 C 58.796875 102.726562 57.746094 97.101562 59.175781 89.558594 C 59.34375 88.699219 59.539062 87.808594 59.761719 86.902344 C 63.042969 87.628906 66.671875 88.148438 70.554688 88.460938 C 72.769531 91.582031 75.089844 94.445312 77.429688 96.953125 C 76.917969 97.449219 76.410156 97.917969 75.902344 98.359375 C 72.796875 101.078125 69.683594 103.003906 66.9375 103.96875 Z M 55.386719 82.152344 C 51.480469 80.816406 48.257812 79.082031 46.046875 77.1875 C 44.058594 75.488281 43.058594 73.800781 43.058594 72.429688 C 43.058594 69.515625 47.40625 65.796875 54.65625 63.269531 C 55.535156 62.960938 56.457031 62.671875 57.414062 62.402344 C 58.414062 65.660156 59.730469 69.066406 61.316406 72.511719 C 59.707031 76.007812 58.375 79.472656 57.363281 82.769531 C 56.683594 82.574219 56.023438 82.367188 55.386719 82.152344 Z M 59.257812 55.796875 C 57.753906 48.105469 58.753906 42.304688 61.269531 40.851562 C 63.949219 39.300781 69.871094 41.511719 76.113281 47.054688 C 76.515625 47.40625 76.914062 47.777344 77.320312 48.164062 C 74.992188 50.660156 72.691406 53.503906 70.496094 56.601562 C 66.730469 56.953125 63.125 57.511719 59.808594 58.265625 C 59.601562 57.425781 59.417969 56.601562 59.257812 55.796875 Z M 93.800781 64.324219 C 93.007812 62.957031 92.195312 61.621094 91.367188 60.320312 C 93.921875 60.644531 96.367188 61.074219 98.667969 61.597656 C 97.980469 63.808594 97.121094 66.121094 96.105469 68.492188 C 95.378906 67.113281 94.609375 65.722656 93.800781 64.324219 Z M 79.714844 50.605469 C 81.292969 52.316406 82.875 54.222656 84.429688 56.296875 C 82.859375 56.222656 81.273438 56.183594 79.675781 56.183594 C 78.09375 56.183594 76.519531 56.21875 74.960938 56.292969 C 76.515625 54.242188 78.113281 52.335938 79.714844 50.605469 Z M 65.539062 64.347656 C 64.746094 65.722656 63.992188 67.105469 63.277344 68.488281 C 62.28125 66.128906 61.429688 63.804688 60.734375 61.5625 C 63.015625 61.050781 65.453125 60.632812 67.992188 60.316406 C 67.152344 61.625 66.332031 62.972656 65.539062 64.347656 Z M 68.066406 84.789062 C 65.441406 84.496094 62.96875 84.101562 60.683594 83.601562 C 61.390625 81.320312 62.261719 78.949219 63.28125 76.535156 C 63.996094 77.917969 64.753906 79.300781 65.550781 80.679688 C 66.363281 82.078125 67.203125 83.449219 68.066406 84.789062 Z M 79.808594 94.492188 C 78.1875 92.746094 76.570312 90.808594 74.992188 88.730469 C 76.523438 88.789062 78.085938 88.820312 79.675781 88.820312 C 81.308594 88.820312 82.921875 88.78125 84.507812 88.714844 C 82.953125 90.832031 81.375 92.769531 79.808594 94.492188 Z M 96.136719 76.410156 C 97.207031 78.851562 98.109375 81.210938 98.828125 83.457031 C 96.507812 83.984375 93.996094 84.410156 91.355469 84.726562 C 92.191406 83.410156 93.007812 82.050781 93.816406 80.652344 C 94.632812 79.238281 95.40625 77.824219 96.136719 76.410156 Z M 90.851562 78.945312 C 89.597656 81.117188 88.3125 83.1875 87.007812 85.140625 C 84.636719 85.308594 82.179688 85.398438 79.675781 85.398438 C 77.183594 85.398438 74.757812 85.324219 72.425781 85.167969 C 71.066406 83.191406 69.753906 81.113281 68.511719 78.964844 C 67.269531 76.820312 66.128906 74.660156 65.09375 72.511719 C 66.128906 70.359375 67.269531 68.195312 68.5 66.058594 C 69.738281 63.914062 71.039062 61.847656 72.382812 59.878906 C 74.765625 59.695312 77.207031 59.601562 79.675781 59.601562 C 82.15625 59.601562 84.601562 59.699219 86.980469 59.878906 C 88.308594 61.832031 89.597656 63.894531 90.839844 66.039062 C 92.09375 68.207031 93.25 70.355469 94.292969 72.464844 C 93.253906 74.605469 92.101562 76.777344 90.851562 78.945312 Z M 97.90625 40.746094 C 100.59375 42.292969 101.632812 48.53125 99.949219 56.707031 C 99.839844 57.226562 99.71875 57.757812 99.585938 58.296875 C 96.265625 57.53125 92.660156 56.960938 88.882812 56.605469 C 86.679688 53.472656 84.398438 50.625 82.109375 48.160156 C 82.726562 47.566406 83.34375 47.003906 83.953125 46.472656 C 89.863281 41.328125 95.394531 39.296875 97.90625 40.746094 Z M 79.675781 65.277344 C 83.625 65.277344 86.828125 68.480469 86.828125 72.429688 C 86.828125 76.375 83.625 79.578125 79.675781 79.578125 C 75.730469 79.578125 72.527344 76.375 72.527344 72.429688 C 72.527344 68.480469 75.730469 65.277344 79.675781 65.277344 Z M 79.675781 65.277344 " fill-opacity="1" fill-rule="nonzero"/></g></svg>