<svg xmlns="http://www.w3.org/2000/svg" 
xmlns:xlink="http://www.w3.org/1999/xlink" 
width="1920" zoomAndPan="magnify" 
viewBox="0 0 1440 809.999993" 
height="1080" 
preserveAspectRatio="xMidYMid meet"
version="1.0"><defs><clipPath id="ecd1dd5f96">
<path d="M 522.746094 189.667969 L 971 189.667969 L 971 656.167969 L 522.746094 656.167969 Z M 522.746094 189.667969 " clip-rule="nonzero"/></clipPath>
</defs><g clip-path="url(#ecd1dd5f96)"><path fill="#70d498" d="M 675.476562 289.386719 L 804.101562 289.386719 L 804.101562 342.152344 L 675.476562 342.152344 L 675.476562 523.835938 L 666.304688 531.808594 L 566.550781 618.554688 L 522.953125 656.472656 L 522.953125 189.667969 L 871.191406 189.667969 L 871.191406 465.101562 C 871.191406 485.574219 862.769531 504.238281 849.21875 517.8125 C 838.191406 528.941406 823.652344 536.578125 807.441406 538.976562 L 868.714844 602.875 L 918.164062 602.875 L 918.164062 342.140625 L 885.511719 342.140625 L 885.511719 289.375 L 970.933594 289.375 L 970.933594 655.640625 L 846.398438 655.640625 L 838.597656 647.496094 L 727.496094 531.625 L 684.703125 487.003906 L 796.496094 487.003906 C 802.488281 487.003906 807.960938 484.523438 811.945312 480.539062 L 812.050781 480.539062 C 815.96875 476.621094 818.410156 471.148438 818.410156 465.089844 L 818.410156 242.433594 L 575.722656 242.433594 L 575.722656 540.867188 L 622.707031 500.011719 L 622.707031 289.398438 L 675.476562 289.398438 Z M 719.164062 386.441406 L 774.734375 386.441406 L 774.734375 442.75 L 719.164062 442.75 Z M 719.164062 386.441406 " fill-opacity="1" fill-rule="evenodd"/></g></svg>