<svg xmlns="http://www.w3.org/2000/svg" xmlns:xlink="http://www.w3.org/1999/xlink" width="100" zoomAndPan="magnify" viewBox="0 0 75 74.999997" height="100" preserveAspectRatio="xMidYMid meet" version="1.0"><defs><clipPath id="6fb48beafe"><path d="M 20.851562 20.550781 L 57.601562 20.550781 L 57.601562 50.550781 L 20.851562 50.550781 Z M 20.851562 20.550781 " clip-rule="nonzero"/></clipPath></defs><g clip-path="url(#6fb48beafe)"><path fill="#000000" d="M 21.59375 20.550781 L 56.855469 20.550781 C 57.054688 20.550781 57.222656 20.621094 57.363281 20.761719 C 57.503906 20.898438 57.574219 21.070312 57.574219 21.265625 L 57.574219 49.839844 C 57.574219 50.035156 57.503906 50.207031 57.363281 50.347656 C 57.222656 50.484375 57.054688 50.554688 56.855469 50.554688 L 21.59375 50.554688 C 21.394531 50.554688 21.226562 50.484375 21.085938 50.347656 C 20.945312 50.207031 20.875 50.035156 20.875 49.839844 L 20.875 21.265625 C 20.875 21.070312 20.945312 20.898438 21.085938 20.761719 C 21.226562 20.621094 21.394531 20.550781 21.59375 20.550781 Z M 21.59375 20.550781 " fill-opacity="1" fill-rule="nonzero"/></g><path fill="#ffffff" d="M 24.925781 23.671875 C 24.800781 23.546875 24.652344 23.488281 24.480469 23.488281 C 24.308594 23.488281 24.160156 23.550781 24.035156 23.671875 C 23.914062 23.792969 23.851562 23.941406 23.851562 24.117188 C 23.851562 24.289062 23.914062 24.4375 24.035156 24.5625 L 25.960938 26.488281 L 24.035156 28.414062 C 23.914062 28.535156 23.851562 28.683594 23.847656 28.859375 C 23.851562 29.03125 23.914062 29.179688 24.035156 29.300781 C 24.160156 29.425781 24.308594 29.488281 24.480469 29.488281 C 24.652344 29.488281 24.804688 29.425781 24.925781 29.300781 L 27.066406 27.160156 C 27.515625 26.710938 27.515625 26.261719 27.066406 25.8125 Z M 33.316406 28.414062 C 33.191406 28.292969 33.042969 28.230469 32.867188 28.230469 L 28.734375 28.230469 C 28.558594 28.230469 28.410156 28.292969 28.285156 28.414062 C 28.164062 28.539062 28.101562 28.6875 28.101562 28.863281 C 28.101562 29.039062 28.164062 29.1875 28.285156 29.3125 C 28.410156 29.4375 28.558594 29.5 28.734375 29.5 L 28.734375 29.496094 L 32.867188 29.496094 L 32.867188 29.5 C 33.042969 29.5 33.191406 29.4375 33.316406 29.3125 C 33.441406 29.1875 33.503906 29.039062 33.503906 28.863281 C 33.503906 28.6875 33.441406 28.539062 33.316406 28.414062 Z M 33.316406 28.414062 " fill-opacity="1" fill-rule="nonzero"/></svg>