<svg xmlns="http://www.w3.org/2000/svg" xmlns:xlink="http://www.w3.org/1999/xlink" width="100" zoomAndPan="magnify" viewBox="0 0 75 74.999997" height="100" preserveAspectRatio="xMidYMid meet" version="1.0"><defs><clipPath id="d24a60d8a3"><path d="M 22.5 19.648438 L 52.5 19.648438 L 52.5 49.648438 L 22.5 49.648438 Z M 22.5 19.648438 " clip-rule="nonzero"/></clipPath></defs><g clip-path="url(#d24a60d8a3)"><path fill="#016ec5" d="M 44.996094 19.648438 L 44.996094 45.414062 L 22.5 42.074219 L 44.996094 49.648438 L 52.496094 46.527344 L 52.496094 23.234375 L 52.5 23.234375 L 52.496094 23.230469 L 52.496094 22.769531 Z M 37.125 24.039062 L 30.234375 30.851562 L 26.085938 27.726562 L 24.375 28.296875 L 28.597656 32.46875 L 24.375 36.640625 L 26.085938 37.214844 L 30.234375 34.089844 L 37.125 40.898438 L 41.25 39.144531 L 41.25 25.792969 Z M 37.125 28.898438 L 37.125 36.039062 L 32.382812 32.46875 Z M 37.125 28.898438 " fill-opacity="1" fill-rule="nonzero"/></g></svg>